{"title":"Savaged 2013 UNCUT BRRip XviD AC3-SuperNova","uid":9919739,"size":1393701810,"categoryP":"video","categoryS":"movies","magnet":"?xt=urn:btih:29122f46f359ab27b8db92f38f713e9bf40b34ef&amp;dn=Savaged+2013+UNCUT+BRRip+XviD+AC3-SuperNova&amp;tr=udp%3A%2F%2Ftracker.openbittorrent.com%3A80&amp;tr=udp%3A%2F%2Fopen.demonii.com%3A1337&amp;tr=udp%3A%2F%2Ftracker.coppersurfer.tk%3A6969&amp;tr=udp%3A%2F%2Fexodus.desync.com%3A6969","seeders":1,"leechers":0,"uploader":"Xetron","files":7,"time":1396990785,"description":"====================================================\nSavaged 2013 UNCUT BRRip XviD AC3-SuperNova\n====================================================\n\n\n\n\n\nA deaf girl is brutalized by a murderous gang who are then hunted by her when the bloodthirsty spirit of an Apache warrior inhabits her lifeless body.\n\n\n\n\n\n\nGenre.......:  Action | Drama | Horror\n\nActors......:  Amanda Adrienne, Tom Ardavany, Ronnie Gene Blevins\n\nLanguage....:  English  \n\nSubs........:  N/A\n\nSource......:  Savaged.2013.UNCUT.720p.BluRay.x264-ENCOUNTERS [Thanks]\n\nBRRip.......:  giangoulas ~SuperNova Team~\n\nimdb..........: &lt;a href=&quot; http://www.imdb.com/title/tt2378453/&quot; rel=&quot;nofollow&quot; target=&quot;_NEW&quot;&gt; http://www.imdb.com/title/tt2378453/&lt;/a&gt;\n========================================\n\n\n\n\n\n\n     Format : AVI\n     Format/Info : Audio Video Interleave\n     File size : 1.30 GiB\n     Duration : 1h 34mn\n     Overall bit rate : 1 960 Kbps\n     Writing application : VirtualDubMod 1.5.10.3 | www.virtualdub-fr.org || (build 2550/release)\n     Writing library : VirtualDubMod build 2550/release\n  Video #0\n     ID : 0\n     Format : MPEG-4 Visual\n     Format profile : Advanced Simple@L5\n     Format settings, BVOP : 1\n     Format settings, QPel : No\n     Format settings, GMC : No warppoints\n     Format settings, Matrix : Default (H.263)\n     Codec ID : XVID\n     Codec ID/Hint : XviD\n     Duration : 1h 34mn\n     Bit rate : 1 503 Kbps\n     Width : 720 pixels\n     Height : 384 pixels\n     Display aspect ratio : 1.85:1\n     Frame rate : 23.976 fps\n     Color space : YUV\n     Chroma subsampling : 4:2:0\n     Bit depth : 8 bits\n     Scan type : Progressive\n     Compression mode : Lossy\n     Bits/(Pixel*Frame) : 0.227\n     Stream size : 1 018 MiB (77%)\n     Writing library : XviD 73\n  Audio #1\n     ID : 1\n     Format : AC-3\n     Format/Info : Audio Coding 3\n     Mode extension : CM (complete main)\n     Format settings, Endianness : Big\n     Codec ID : 2000\n     Duration : 1h 34mn\n     Bit rate mode : Constant\n     Bit rate : 448 Kbps\n     Channel(s) : 6 channels\n     Channel positions : Front: L C R, Side: L R, LFE\n     Sampling rate : 48.0 KHz\n     Bit depth : 16 bits\n     Compression mode : Lossy\n     Stream size : 303 MiB (23%)\n     Alignment : Split accross interleaves\n     Interleave, duration : 42 ms (1.00 video frame)\n     Interleave, preload duration : 500 ms \n====================================","torrent":{"xt":"urn:btih:29122f46f359ab27b8db92f38f713e9bf40b34ef","amp;dn":"Savaged+2013+UNCUT+BRRip+XviD+AC3-SuperNova","amp;tr":["udp%3A%2F%2Ftracker.openbittorrent.com%3A80","udp%3A%2F%2Fopen.demonii.com%3A1337","udp%3A%2F%2Ftracker.coppersurfer.tk%3A6969","udp%3A%2F%2Fexodus.desync.com%3A6969"],"infoHash":"29122f46f359ab27b8db92f38f713e9bf40b34ef","infoHashBuffer":{"type":"Buffer","data":[41,18,47,70,243,89,171,39,184,219,146,243,143,113,62,155,244,11,52,239]},"announce":[],"urlList":[]}}